<mxfile modified="2022-05-04T05:03:28.759Z" host="app.diagrams.net" agent="5.0 (Windows NT 10.0; Win64; x64) AppleWebKit/537.36 (KHTML, like Gecko) Chrome/100.0.4896.127 Safari/537.36 Edg/100.0.1185.50" etag="jF2uMErN0UkmaaE2iLO0" compressed="false" version="17.5.0" type="google">
  <diagram id="IYmFxrI3LE4agKq_9Wi7" name="Group Role Removal">
    <mxGraphModel grid="1" page="1" gridSize="10" guides="1" tooltips="1" connect="1" arrows="1" fold="1" pageScale="1" pageWidth="827" pageHeight="1169" math="0" shadow="0">
      <root>
        <mxCell id="47RuE0vfy-NIah9IlcA8-0" />
        <mxCell id="47RuE0vfy-NIah9IlcA8-1" parent="47RuE0vfy-NIah9IlcA8-0" />
        <mxCell id="47RuE0vfy-NIah9IlcA8-2" value="Start" style="rounded=0;whiteSpace=wrap;html=1;" vertex="1" parent="47RuE0vfy-NIah9IlcA8-1">
          <mxGeometry x="160" y="120" width="80" height="40" as="geometry" />
        </mxCell>
        <mxCell id="47RuE0vfy-NIah9IlcA8-3" value="Remove Role" style="rounded=0;whiteSpace=wrap;html=1;" vertex="1" parent="47RuE0vfy-NIah9IlcA8-1">
          <mxGeometry x="280" y="240" width="80" height="40" as="geometry" />
        </mxCell>
        <mxCell id="47RuE0vfy-NIah9IlcA8-4" value="Disable Roles &amp;amp; Permissions in Group" style="rounded=0;whiteSpace=wrap;html=1;" vertex="1" parent="47RuE0vfy-NIah9IlcA8-1">
          <mxGeometry x="440" y="240" width="80" height="40" as="geometry" />
        </mxCell>
        <mxCell id="47RuE0vfy-NIah9IlcA8-5" value="Select Group" style="rounded=0;whiteSpace=wrap;html=1;" vertex="1" parent="47RuE0vfy-NIah9IlcA8-1">
          <mxGeometry x="280" y="160" width="80" height="40" as="geometry" />
        </mxCell>
      </root>
    </mxGraphModel>
  </diagram>
</mxfile>
